<svg id="Layer_5" enable-background="new 0 0 64 64" height="512" viewBox="0 0 64 64" width="512" xmlns="http://www.w3.org/2000/svg"><g><path d="m45 61h4v-2.426c-1.483-.421-2.842-1.138-4-2.095z"/><path d="m43 41.695v-3.695h2v1.521c1.158-.957 2.517-1.674 4-2.095v-5.426h2v5.051c.33-.03.662-.051 1-.051 1.041 0 2.045.155 3 .426v-13.012l-1-1-3 3v3.586h-2v-1.586l-4 4v3.586h-2v-1.586l-3 3-1-1v1.586h-2v-3.586l-4-4v1.586h-2v-1.586l-4 4v3.586h-2v-1.586l-4 4v3.586h-2v-1.586l-4 4v3.586h-2v-1.586l-4 4v3.586h-2v-1.586l-1 1-3-3v8.586h4v-3h2v3h4v-9h2v9h4v-15h2v15h4v-21h2v21h4v-27h2v27h4v-21h2v21h4v-6.695c-1.256-1.787-2-3.959-2-6.305s.744-4.517 2-6.305z"/><path d="m20 29h1.586l2-2h-2.586v-2h4.586l3.414-3.414v-1.586c0-.552-.448-1-1-1h-8c-.552 0-1 .448-1 1v8c0 .552.448 1 1 1zm1-8h6v2h-6z"/><path d="m6 52.586 26-26 8 8 14-14 3.223 3.223c.342.339.991.153 1.099-.314l2.658-11.52c.013-.059.02-.12.02-.179 0-.498-.471-.888-.977-.775l-11.518 2.658c-.297.068-.505.33-.505.636 0 .175.068.338.191.462l3.223 3.223-11.414 11.414-8-8-28.586 28.586z"/><path d="m51 58.949v2.051h4v-2.426c-.955.271-1.959.426-3 .426-.338 0-.67-.021-1-.051z"/><path d="m52 39c-4.963 0-9 4.037-9 9s4.037 9 9 9 9-4.037 9-9-4.037-9-9-9zm0 8c1.654 0 3 1.346 3 3 0 1.302-.839 2.402-2 2.816v2.184h-2v-2.184c-1.161-.414-2-1.514-2-2.816h2c0 .552.448 1 1 1s1-.448 1-1-.448-1-1-1c-1.654 0-3-1.346-3-3 0-1.302.839-2.402 2-2.816v-2.184h2v2.184c1.161.414 2 1.514 2 2.816h-2c0-.552-.448-1-1-1s-1 .448-1 1 .448 1 1 1z"/><path d="m4 13h8c.552 0 1-.448 1-1v-8c0-.552-.448-1-1-1h-8c-.552 0-1 .448-1 1v8c0 .552.448 1 1 1zm1-6h2v-2h2v2h2v2h-2v2h-2v-2h-2z"/><path d="m20 13h8c.552 0 1-.448 1-1v-8c0-.552-.448-1-1-1h-8c-.552 0-1 .448-1 1v8c0 .552.448 1 1 1zm1-6h6v2h-6z"/><path d="m4 29h8c.552 0 1-.448 1-1v-8c0-.552-.448-1-1-1h-8c-.552 0-1 .448-1 1v8c0 .552.448 1 1 1zm.293-7.293 1.414-1.414 2.293 2.293 2.293-2.293 1.414 1.414-2.293 2.293 2.293 2.293-1.414 1.414-2.293-2.293-2.293 2.293-1.414-1.414 2.293-2.293z"/></g></svg>