<?xml version="1.0" encoding="utf-8"?>
<!-- Svg Vector Icons : http://www.onlinewebfonts.com/icon -->
<!DOCTYPE svg PUBLIC "-//W3C//DTD SVG 1.1//EN" "http://www.w3.org/Graphics/SVG/1.1/DTD/svg11.dtd">
<svg version="1.1" xmlns="http://www.w3.org/2000/svg" xmlns:xlink="http://www.w3.org/1999/xlink" x="0px" y="0px" viewBox="0 0 1000 1000" enable-background="new 0 0 1000 1000" xml:space="preserve">
<metadata> Svg Vector Icons : http://www.onlinewebfonts.com/icon </metadata>
<g><g transform="translate(0.000000,512.000000) scale(0.100000,-0.100000)"><path d="M4724.2,4987.2c-189.6-51.7-360-149.4-509.4-294.9c-68.9-67-124.5-126.4-124.5-132.1c0-7.7-24.9-51.7-55.5-97.7c-28.7-47.9-69-136-88.1-197.3c-19.2-61.3-49.8-130.2-70.9-151.3c-30.6-34.5-34.5-57.5-23-132.1c11.5-86.2,11.5-90-26.8-68.9c-21.1,11.5-55.5,21.1-74.7,21.1c-21.1-1.9-11.5-11.5,28.7-28.7c49.8-21.1,61.3-38.3,61.3-82.3c0-30.6,13.4-67,26.8-80.4c15.3-11.5,38.3-67,51.7-122.6c17.2-84.3,17.2-122.6-9.6-224.1c-26.8-109.2-26.8-134.1-1.9-227.9c26.8-99.6,24.9-114.9-19.2-291.1c-26.8-101.5-47.9-191.5-47.9-201.1c0-7.7-24.9,36.4-55.5,99.6c-49.8,107.3-51.7,118.7-24.9,174.3c24.9,51.7,23,65.1-3.8,118.7c-17.2,32.6-30.6,72.8-30.6,90c0,15.3-7.7,28.7-19.2,28.7c-26.8,0-24.9-21.1,11.5-105.3c17.2-42.1,24.9-93.8,17.2-120.6c-11.5-44.1-13.4-46-42.1-17.2s-34.5,28.7-57.5-1.9c-28.7-36.4-15.3-51.7-136,134.1l-61.3,95.8l49.8,59.4c28.7,34.5,78.5,76.6,111.1,97.7c72.8,42.1,164.7,126.4,164.7,151.3c0,9.6-26.8-5.7-59.4-32.6c-61.3-51.7-137.9-80.4-166.6-61.3c-24.9,15.3-44,319.8-30.6,492.2c11.5,139.8,17.2,151.3,55.5,151.3c51.7,0,90,40.2,143.6,159c24.9,53.6,63.2,99.6,88.1,109.2c23,9.6,47.9,26.8,55.5,38.3c17.2,28.7-80.4-24.9-137.9-74.7c-24.9-21.1-44-49.8-44-65.1c0-47.9-93.8-111.1-134.1-90c-30.6,17.2-40.2,55.5-63.2,281.5c-1.9,23-11.5,47.9-21.1,57.5c-9.6,7.7-11.5-24.9-3.8-80.4c36.4-264.3,42.1-417.5,23-497.9c-13.4-46-28.7-90-34.5-95.8c-7.7-7.7-38.3,32.6-70.8,88.1l-57.5,101.5l47.9,55.5c32.6,38.3,46,74.7,42.1,124.5l-1.9,70.9l-7.7-70.9c-3.8-38.3-21.1-80.4-36.4-93.8c-23-19.2-38.3-13.4-84.3,30.6c-53.6,51.7-78.5,124.5-42.1,124.5c9.6,0,32.6,13.4,53.6,28.7c32.6,24.9,30.6,26.8-28.7,9.6c-36.4-9.6-70.9-13.4-76.6-7.7c-5.7,5.7-13.4,70.9-19.2,147.5c-5.7,105.3-11.5,124.5-21.1,78.5c-21.1-99.6,9.6-281.5,65.1-367.7l49.8-80.4l-46-11.5c-95.8-23-153.2-1.9-187.7,72.8c-19.2,38.3-53.6,82.4-76.6,93.8c-38.3,21.1-38.3,17.2,9.6-38.3c28.7-34.5,51.7-69,51.7-78.5c0-9.6,5.7-30.6,13.4-49.8c7.7-21.1,5.7-28.7-7.7-21.1c-24.9,15.3-82.3-1.9-82.3-24.9c0-7.7,68.9-11.5,151.3-7.7c149.4,5.7,153.2,5.7,201.1-51.7c26.8-32.6,49.8-68.9,49.8-80.4c0-13.4,34.5-65.1,74.7-114.9c42.1-49.8,80.4-116.8,88.1-149.4c15.3-68.9-19.2-222.2-63.2-279.6l-32.6-42.1l-82.4,78.5c-78.5,70.9-82.4,80.4-61.3,130.2c15.3,36.4,42.1,57.5,82.3,68.9l61.3,15.3l-61.3,5.8c-61.3,7.7-63.2,11.5-65.1,97.7c-1.9,114.9-32.5,53.6-34.5-68.9c-1.9-46-11.5-99.6-23-122.6c-21.1-38.3-21.1-38.3-67,5.7c-28.7,26.8-46,65.1-46,101.5c0,32.6-13.4,76.6-28.7,95.8c-15.3,21.1-24.9,55.5-19.2,76.6c9.6,34.5,7.7,34.5-7.7,9.6c-15.3-23-13.4-49.8,0-91.9c11.5-32.6,17.2-70.9,11.5-86.2c-5.8-13.4,0-36.4,11.5-49.8c24.9-26.8,32.6-28.7-141.7,40.2c-49.8,19.2-130.2,40.2-181.9,46l-93.8,13.4l82.3,86.2c46,47.9,76.6,91.9,70.9,97.7c-7.7,7.7-38.3-19.2-70.9-59.4c-32.5-40.2-88.1-84.3-126.4-101.5c-63.2-24.9-70.9-24.9-103.4,9.6c-19.2,21.1-34.5,47.9-34.5,61.3c0,11.5,47.9,70.8,105.3,130.2c151.3,155.1,170.4,187.7,147.5,237.5c-19.2,38.3-21.1,38.3-21.1-19.2c-1.9-46-19.2-74.7-72.8-120.6l-72.8-59.4l-9.6,120.6c-5.7,82.3-13.4,109.2-24.9,84.3c-7.7-19.2-7.7-76.6-1.9-126.4c11.5-84.3,5.7-101.5-49.8-180c-61.3-86.2-63.2-88.1-28.7-126.4c28.7-32.6,30.6-38.3,5.7-38.3c-17.2,0-55.5-5.7-86.2-11.5c-55.5-11.5-57.5-9.6-76.6,91.9l-19.2,101.5l-3.8-109.2c-1.9-99.6-5.8-109.2-53.6-126.4c-30.6-9.6-68.9-24.9-90-32.6c-32.6-15.3-32.6-11.5-3.8,44c17.2,32.6,30.6,84.3,30.6,113c-1.9,46-7.7,40.2-49.8-46c-26.8-55.5-55.5-101.5-63.2-101.5c-34.5,0-95.8,91.9-103.4,153.2c-7.7,65.1-7.7,65.1-9.6-11.5c-1.9-53.6,7.7-95.8,34.5-128.3c49.8-63.2,47.9-78.5-11.5-118.7c-26.8-17.2-82.3-63.2-124.5-99.6c-88.1-80.4-97.7-76.6-170.4,74.7c-26.8,53.6-68.9,113-95.8,128.3l-47.9,30.6l51.7-67c28.7-36.4,55.5-90,63.2-116.8c11.5-46,5.7-51.7-61.3-61.3c-40.2-7.7-118.7-13.4-174.3-13.4c-88.1,0-214.5-40.2-214.5-68.9c0-3.8,24.9,3.8,53.6,19.2c61.3,32.6,450.1,32.6,482.6,0c11.5-11.5-11.5-55.5-61.3-118.7c-65.1-88.1-84.3-101.5-124.5-90c-24.9,5.7-78.5,3.8-116.8-3.8l-70.9-13.4l101.5-13.4c55.5-7.7,105.3-17.2,111.1-23c3.8-3.8-7.7-53.6-28.7-111.1c-21.1-57.5-42.1-126.4-47.9-153.2c-7.7-36.4-28.7-53.6-82.4-68.9l-72.8-19.2l67-3.8l67-1.9l1.9-159c0-86.2,15.3-204.9,32.5-266.2c40.2-136,40.2-137.9-9.6-103.4c-23,17.2-61.3,30.6-82.3,30.6c-51.7,0-114.9,59.4-162.8,151.3c-34.5,70.9-78.5,97.7-160.9,97.7c-21.1,0-57.5,19.2-82.4,42.1l-46,42.1l17.2-46c13.4-34.5,40.2-51.7,101.5-67c74.7-17.2,90-32.6,137.9-120.7l53.6-99.6h-53.6c-42.1,0-47.9-3.8-24.9-19.2c15.3-9.6,67-19.2,114.9-19.2c107.3,0,273.9-90,316-172.4c15.3-30.6,68.9-105.3,114.9-162.8c65.1-78.5,80.4-109.2,59.4-116.8c-47.9-19.2-218.3,68.9-260.5,134.1c-32.6,51.7-38.3,53.6-38.3,17.2c0-40.2,93.8-136,139.8-143.6c13.4-1.9-46-7.7-130.2-15.3L1323,1605l-67,63.2c-36.4,34.5-95.8,70.8-130.2,84.3c-32.6,11.5-61.3,26.8-61.3,32.5c0,7.7-21.1,40.2-47.9,70.9l-47.9,57.5l36.4-86.2c28.7-63.2,53.6-90,99.6-105.3c63.2-21.1,137.9-97.7,122.6-124.5c-13.4-21.1-180-76.6-231.7-76.6c-23,0-80.4,17.2-128.3,38.3c-76.6,34.5-91.9,49.8-118.7,132.1c-15.3,49.8-57.5,116.8-90,147.5l-59.4,55.5l49.8-76.6c28.7-42.1,55.5-105.3,63.2-137.9c11.5-55.5,7.7-59.4-32.6-51.7c-34.5,7.7-26.8-1.9,24.9-34.5c40.2-24.9,68.9-51.7,67-63.2c-3.8-9.6-49.8-28.7-103.4-40.2c-51.7-11.5-111.1-32.5-132.1-44c-28.7-19.2-30.6-21.1-3.8-13.4c19.2,5.8,78.5,15.3,134.1,23c55.5,7.7,114.9,24.9,134.1,40.2c24.9,21.1,46,23,101.5,7.7c44-11.5,107.3-11.5,178.1,0c143.6,23,141.7,23,118.7-23c-23-40.2-26.8-42.1-143.6-74.7c-42.1-11.5-124.5-55.5-181.9-97.7c-120.6-90-67-88.1,80.4,1.9c49.8,30.6,124.5,61.3,162.8,68.9c40.2,7.7,88.1,34.5,111.1,61.3c99.6,120.7,95.8,118.7,260.5,118.7c170.4,0,170.4,0,101.5-137.9c-47.9-91.9-28.7-101.5,26.8-13.4c30.6,46,59.4,99.6,67,116.8c17.2,46,99.6,63.2,185.8,36.4c72.8-21.1,164.7-88.1,275.8-203l55.5-57.5l-151.3-11.5l-151.3-9.6l143.6-5.7c78.5-3.8,168.5-11.5,199.2-19.2l53.6-11.5l-51.7-51.7c-63.2-65.1-44-68.9,47.9-11.5c53.6,32.5,97.7,42.1,224.1,42.1c151.3,1.9,155.1,1.9,124.5-32.6c-17.2-19.2-72.8-65.1-122.6-103.4c-51.7-36.4-91.9-74.7-91.9-84.3c0-28.7,168.5,90,277.7,195.3c53.6,49.8,120.6,101.5,149.4,111.1c109.2,42.1,356.2,13.4,494.1-57.5c97.7-47.9,243.2-216.4,308.3-354.3c103.4-222.2,181.9-727.7,126.4-831.2c-67-126.4-281.5-36.4-471.1,197.3L3209.4,387l26.8,132.1c15.3,72.8,46,172.4,67,222.1c32.6,76.6,46,90,93.8,90c28.7,0,70.9,13.4,91.9,30.6c36.4,28.7,36.4,30.6-1.9,15.3c-21.1-7.7-63.2-17.2-93.8-23l-55.5-9.6l11.5,93.8c7.7,61.3,5.8,80.4-5.7,55.5c-9.6-21.1-17.2-59.4-17.2-84.3c-1.9-24.9-21.1-74.7-42.1-111.1l-40.2-65.1l-40.2,63.2c-23,34.5-55.5,107.2-74.7,159c-28.7,82.3-32.6,88.1-34.5,40.2c0-30.6,30.6-114.9,67-187.7l68.9-130.2l-24.9-126.4l-23-128.3l-47.9,65.1c-26.8,36.4-107.3,126.4-176.2,199.2c-70.9,74.7-145.6,164.7-168.5,201.1c-46,78.5-53.6,49.8-11.5-51.7c15.3-36.4,28.7-68.9,28.7-70.9c0-17.2-256.6,38.3-312.2,68.9c-91.9,46-109.2,36.4-30.6-21.1c30.6-23,105.3-49.8,164.7-59.4c231.7-38.3,325.6-101.5,482.6-325.6l74.7-107.2l-199.2,97.7c-193.4,95.8-227.9,80.4-51.7-23c72.8-42.1,78.5-49.8,59.4-91.9c-11.5-26.8-44-51.7-74.7-57.5c-30.6-7.7-59.4-19.2-65.1-28.7c-5.7-9.6,28.7-3.8,74.7,11.5c51.7,17.2,91.9,44,97.7,67c17.2,49.8,42.1,46,143.6-23c76.6-53.6,210.7-197.3,226-247.1c9.6-28.7-166.6-23-325.6,9.6c-239.4,51.7-277.7,78.5-476.9,346.7C2405,639.8,2385.8,659,2194.3,756.6c-141.7,72.8-153.2,82.3-153.2,157c0,34.5-17.2,69-49.8,95.8c-28.7,23-70.9,63.2-95.8,88.1c-32.6,32.6-46,38.3-46,17.2c0-15.3,30.6-55.5,67-90c47.9-42.1,67-76.6,67-116.8c0-53.6-3.8-55.5-63.2-44c-157,28.7-444.3,126.4-526.7,178.1c-51.7,30.6-103.4,78.5-118.7,105.3c-13.4,26.8-36.4,47.9-51.7,47.9c-46,0,59.4-141.7,130.2-176.2l65.1-30.6l-143.6-68.9l-143.6-68.9l-57.5,65.1c-44,49.8-76.6,67-143.6,76.6l-86.2,9.6l78.5-30.6c42.1-17.2,93.8-55.5,114.9-86.2c32.6-51.7,44-55.5,116.8-44l82.4,11.5l-9.6-63.2l-9.6-63.2l24.9,67c28.7,70.9,103.4,128.3,197.3,145.5c44,7.7,97.7-5.8,191.5-46c72.8-30.6,195.3-74.7,273.9-99.6c78.5-23,172.4-61.3,206.8-84.3l65.1-44l-116.8-70.9c-113-67-124.5-68.9-300.7-68.9c-189.6,0-363.9-34.5-484.5-95.8c-67-34.5-72.8-34.5-220.2,1.9c-84.3,19.2-174.3,36.4-199.2,36.4c-53.6,0-270,128.3-270,159c0,13.4-24.9,74.7-55.5,137.9c-63.2,128.3-80.4,99.6-21.1-30.6c21.1-46,38.3-93.8,38.3-105.3c0-28.7-118.7-47.9-141.7-24.9c-34.5,30.6-49.8,17.2-26.8-21.1c19.2-28.7,38.3-34.5,101.5-24.9c63.2,7.7,93.8,0,166.6-44.1c49.8-30.6,90-59.4,91.9-65.1c0-26.8-237.5-157-335.1-181.9l-114.9-28.7l130.2,7.7c109.2,5.8,128.3,1.9,128.3-24.9C545.4,178.3,482.2,48,428.6-15.2c-74.7-93.8-26.8-72.8,53.6,23c55.5,67,84.3,118.8,91.9,178.1C599,348.7,773.3,436.8,982.1,390.8c149.4-32.6,149.4-32.6,44-116.8c-90-70.8-109.2-78.5-183.9-68.9c-46,3.8-78.5,1.9-72.8-7.7c5.7-9.6,40.2-17.2,76.6-17.2h69l-69-93.8c-67-91.9-187.7-327.5-195.3-384.9c-1.9-15.3-11.5-72.8-17.2-128.3c-9.6-67-24.9-101.5-46-107.2c-26.8-7.7-24.9-9.6,3.8-11.5c26.8-1.9,32.6-21.1,32.6-103.4c0-231.7,113-503.7,289.2-691.3c61.3-67,113-132.2,113-143.6c0-11.5,9.6-21.1,23-21.1c13.4,0,90-34.5,172.4-78.5c340.9-176.2,729.7-172.4,1064.8,13.4c109.2,59.4,126.4,63.2,155.1,38.3c17.2-15.3,72.8-46,122.6-67c51.7-23,90-49.8,86.2-63.2c-3.8-11.5-42.1-30.6-84.3-44c-42.1-13.4-164.7-68.9-270-122.6c-191.5-101.5-193.4-101.5-291.1-80.4c-55.5,11.5-103.4,21.1-107.3,21.1c-13.4,0-70.9-116.8-61.3-126.4c3.8-3.8,23,9.6,42.1,30.6c26.8,30.7,59.4,38.3,147.5,38.3c61.3,0,141.7,11.5,178.1,26.8c61.3,26.8,65.1,24.9,78.5-11.5c7.7-24.9-1.9-57.5-28.7-93.8c-46-61.3-44.1-63.2,24.9-36.4c40.2,15.3,49.8,30.6,49.8,84.3s13.4,78.5,68.9,122.6c38.3,32.6,107.3,69,155.1,80.4c72.8,21.1,99.6,19.1,201.1-11.5l116.8-34.5l-65.1-23l-65.1-23l72.8-1.9c72.8-1.9,80.4-13.4,59.4-91.9c-9.6-34.5-24.9-42.1-76.6-40.2c-36.4,1.9-76.6-7.7-90-21.1c-17.2-17.2-7.7-19.2,38.3-9.6c72.8,13.4,88.1-7.7,61.3-84.3c-17.2-47.9-13.4-68.9,9.6-103.4c30.6-44,30.6-44,19.1,17.2c-7.7,42.1,0,80.4,28.7,134.1c23,40.2,47.9,99.6,55.5,130.2c13.4,46,26.8,59.4,72.8,63.2c30.6,1.9,109.2,17.2,176.2,34.5c128.3,34.5,145.6,28.7,164.7-51.7c13.4-57.5-42.1-118.7-126.4-139.8c-32.6-7.7-65.1-34.5-84.3-74.7l-32.5-61.3l47.9,44c61.3,55.5,99.6,55.5,84.3,0c-30.6-105.3-34.5-149.4-15.3-149.4c11.5,0,36.4-5.7,55.5-11.5c32.6-11.5,32.6-11.5-1.9,15.3c-34.5,26.8-34.5,30.6,3.8,118.8c23,49.8,57.5,113,80.4,139.8c26.8,34.5,38.3,78.5,38.3,139.8v91.9l170.4,42.1c191.5,46,252.8,42.1,379.2-30.6c162.8-93.8,312.2-409.8,354.3-752.6c24.9-204.9,7.7-666.5-28.7-800.5c-15.3-55.5-34.5-193.4-40.2-306.4c-28.7-463.5-80.4-955.6-118.7-1110.8l-11.5-44h915.4h917.3l-13.4,224.1c-7.6,124.5-23,394.5-32.6,599.4c-11.5,204.9-38.3,478.8-59.4,609c-46,285.4-78.5,779.5-82.3,1296.5c-3.8,350.5,0,394.5,40.2,520.9c47.9,151.3,157.1,293,227.9,293c21,0,93.8-47.9,160.9-107.2c67-59.4,124.5-111.1,126.4-111.1c1.9-1.9-19.1-30.6-47.9-61.3c-137.9-153.2-170.4-206.8-183.8-321.7c-5.7-61.3-21.1-128.3-32.6-147.5c-32.6-61.3-3.8-40.2,38.3,28.7c23,34.5,40.2,93.8,40.2,130.2c0,46,19.2,90,57.5,139.8l57.5,72.8l1.9-103.4c0-88.1,3.8-95.8,19.1-55.5c11.5,24.9,13.4,76.6,7.7,114.9c-7.7,51.7,0,78.5,32.6,118.7l44.1,53.6l151.3-76.6c203-101.5,254.7-153.2,245.1-237.5c-3.8-34.5,1.9-70.9,13.4-76.6c13.4-9.6,21,3.8,21,34.5c0,63.2,28.7,63.2,68.9,1.9c17.2-26.8,36.4-45.9,40.2-40.2c5.7,3.8-26.8,61.3-69,126.4c-84.2,126.4-97.7,180-47.9,199.2c51.7,19.1,57.4,13.4,80.4-61.3c30.7-97.7,153.2-283.4,250.9-377.3c42.1-40.2,78.5-86.2,78.5-99.6c0-13.4,9.6-24.9,23-24.9s90-34.5,172.3-78.5c340.9-176.2,729.7-172.4,1062.9,11.5c67,36.4,134.1,67,149.4,67s28.7,9.6,28.7,21.1c0,11.5,47.9,74.7,107.2,137.9c260.5,289.2,365.8,746.9,245.2,1076.3c-11.5,34.5-7.7,32.5,40.2-9.6c49.8-42.1,47.9-36.4-15.3,47.9c-67,90-147.5,226-147.5,249c0,5.7,36.4,9.6,82.3,11.5c44,0,97.7,7.6,118.8,15.3c23,9.6-17.2,13.4-95.8,7.6l-134-7.6l-72.8,86.2c-40.2,47.9-69,95.8-61.3,107.2c11.5,17.2,296.8,114.9,340.9,114.9c13.4,0,70.9-47.9,128.3-107.2c99.6-103.4,226-180,287.3-178.1c15.3,0-5.7,13.4-47.9,28.7c-74.7,26.8-224.1,155.1-262.4,226c-19.1,34.5-13.4,36.4,130.2,26.8c187.7-13.4,101.5,17.2-99.6,34.5c-153.2,13.4-381.1-26.8-476.9-84.3c-57.5-34.5-57.5-34.5-143.7,26.8c-47.9,32.5-114.9,74.7-147.5,91.9c-63.2,30.6-111.1,103.4-141.7,210.7c-17.2,59.4,28.7,279.6,59.4,279.6c63.2,0,331.3-88.1,400.3-132.1c78.5-49.8,423.2-199.2,423.2-183.9c0,3.8-57.4,38.3-128.3,78.5l-130.2,72.8l67,17.2c36.4,9.6,114.9,21.1,172.4,26.8c57.5,5.7,111.1,15.3,118.8,21.1c15.3,15.3-262.4-3.8-371.6-24.9c-59.4-11.5-82.3-5.7-147.5,40.2c-90,63.2-93.8,76.6-34.5,90c23,3.8,132.1,32.6,241.3,61.3c178.1,47.9,208.7,49.8,296.8,30.6c134.1-30.6,197.3-91.9,224.1-214.5c15.3-67,44.1-122.6,88.1-172.4c88.1-97.7,101.5-84.3,24.9,24.9c-32.6,46-63.2,114.9-68.9,153.2l-11.5,68.9l130.2-7.7l132.2-7.7l-128.3,34.5c-111.1,30.6-321.7,145.5-321.7,178.1c0,5.7,36.4,34.5,80.4,63.2c67,44.1,97.7,51.7,162.8,44.1c74.7-7.7,120.6,11.5,120.6,47.9c0,9.6-13.4,9.6-30.6,0c-15.4-7.7-53.7-11.5-86.2-7.7c-63.2,9.6-72.8,57.5-26.8,137.9c15.3,26.8,26.8,65.1,26.8,86.2c-1.9,38.3-93.8-132.1-93.8-174.3c0-28.7-74.7-91.9-151.3-132.1c-36.4-17.2-164.7-53.6-287.3-78.5c-122.6-24.9-277.7-63.2-346.6-84.3c-233.7-72.8-260.4-61.3-775.6,293c-34.5,24.9-34.5,28.7,17.2,61.3c28.7,19.2,162.8,72.8,294.9,118.7c134.1,46,270,93.8,304.5,105.3c86.2,30.6,229.8-28.7,266.2-109.2c23-49.8,24.9-51.7,26.8-15.3c0,40.2,7.7,42.1,82.3,32.5c74.7-11.5,84.3-7.7,105.3,38.3c13.4,30.6,57.5,67,103.4,88.1l82.3,36.4l-86.2-11.5c-80.4-9.6-101.5-23-162.8-107.2c-23-32.6-30.6-30.6-160.9,26.8c-74.7,32.6-136,67-136,74.7c0,9.6,24.9,24.9,55.5,34.5c34.5,11.5,70.8,46,90,84.3c17.2,34.5,42.1,68.9,53.6,76.6c13.4,9.6,9.6,15.3-11.5,15.3c-17.2,0-46-23-63.2-53.6c-57.4-95.8-312.1-203-666.4-281.5c-53.6-11.5-55.5-9.6-42.1,51.7c5.7,34.5,38.3,86.2,68.9,113c30.6,26.8,55.5,61.3,55.5,78.5c0,19.2-21.1,9.6-68.9-34.5c-36.4-36.4-74.7-65.1-84.3-65.1c-7.7,0-21.1-38.3-28.7-86.2c-11.5-82.3-17.3-90-120.7-143.6c-210.7-107.2-249-141.7-429-383c-126.4-168.5-201.1-250.9-254.7-281.5c-137.9-74.7-545.8-134.1-545.8-80.4c0,38.3,162.8,212.6,247.1,262.4l82.3,47.9l32.6-38.3c32.5-44,174.3-111.1,174.3-82.3c0,7.7-26.8,21.1-57.5,28.7c-53.6,11.5-95.7,57.5-95.7,101.5c0,9.6,24.9,28.7,55.5,42.1c30.6,11.5,76.6,44,101.5,70.9l44,49.8l-76.6-40.2c-42.1-23-118.8-61.3-172.4-84.3c-51.7-23-103.4-46-113-49.8c-23-11.5,69,111.1,183.9,247.1c82.3,97.7,103.4,111.1,214.5,139.8c68.9,17.2,145.5,30.6,170.4,30.6c23,0,80.4,23,124.5,51.7c91.9,61.3,93.8,86.2,0,28.7c-36.4-21.1-116.8-42.1-193.4-49.8C7190.9,772,7189,772,7204.3,816c38.3,128.3,42.1,130.2,128.3,130.2c118.7,0,291.1,47.9,444.3,124.5c74.7,36.4,143.6,67,157.1,67c13.4,0,34.5,23,47.9,51.7c13.4,28.7,46,63.2,72.8,76.6c26.8,13.4,42.1,24.9,32.6,24.9c-7.7,0,19.1,44,61.3,95.8c42.1,53.6,82.4,113,88.1,134.1c21.1,65.1,55.5,42.1,120.6-78.5c74.7-134.1,101.5-139.8,44-7.7c-23,49.8-40.2,97.7-40.2,107.3c0,23,281.5,21.1,323.7-1.9c19.1-9.6,45.9-44,59.4-74.7c19.2-46,40.2-61.3,120.6-80.4c55.5-11.5,120.7-40.2,147.5-59.4c53.6-42.1,174.3-95.8,185.8-84.3c19.2,19.2-220.2,160.9-291.1,172.4c-47.9,7.7-88.1,28.7-103.4,53.6c-13.4,21.1-21.1,42.1-17.2,46c5.8,3.8,59.4-1.9,120.7-11.5c76.6-13.4,137.9-11.5,189.6,1.9c61.3,17.2,80.4,15.3,95.8-5.7c11.5-15.3,65.1-32.5,116.8-40.2c53.6-5.8,113-15.3,134.1-23c36.4-11.5,36.4-11.5,1.9,11.5c-21.1,11.5-72.8,30.6-114.9,40.2c-130.2,28.7-141.7,53.6-46,105.3c65.1,36.4,72.8,44,32.6,38.3c-49.8-7.7-49.8-5.8-32.6,61.3c11.5,38.3,42.1,99.6,68.9,136l47.9,67l-59.4-55.5c-32.6-30.6-74.7-97.7-90-147.5c-26.8-82.3-42.1-97.7-118.8-132.1c-47.9-21.1-109.2-38.3-134.1-38.3c-68.9,0-235.5,63.2-235.5,88.1c0,26.8,74.7,90,137.9,118.7c28.7,11.5,68.9,55.6,91.9,97.7c55.5,111.1,47.9,114.9-28.7,13.4c-38.3-47.9-82.4-88.1-97.7-88.1c-15.3,0-63.2-32.6-109.2-74.7l-80.4-74.7l-149.4,11.5l-149.4,9.6l65.1,44c61.3,42.1,90,80.4,90,126.4c0,9.6-23-7.7-49.8-42.1c-51.7-59.4-157-126.4-174.3-109.2c-3.8,5.8,5.8,61.3,23,122.6c19.2,61.3,36.4,120.6,38.3,132.1c3.8,11.5,55.5,53.6,114.9,91.9c84.3,57.5,136,76.6,233.7,88.1c128.3,17.2,183.8,38.3,95.8,38.3c-61.3,0-61.3-3.8-9.6,105.3c34.5,68.9,55.5,90,111.1,105.3c36.4,9.6,76.6,19.2,88.1,19.2c13.4,0,28.7,13.4,34.5,30.6c19.2,47.9,13.4,53.6-21.1,23c-19.2-17.2-74.7-36.4-122.6-42.1c-76.6-11.5-93.8-23-113-70.9c-40.2-95.8-93.8-149.4-170.4-170.4c-38.3-9.6-107.2-49.8-151.3-88.1l-80.4-68.9v99.6c0,53.6,9.6,114.9,19.1,134.1c15.3,28.7,13.4,34.5-3.8,28.7c-17.2-7.7-34.5,32.6-57.5,118.7c-17.2,72.8-36.4,143.6-44,160.9c-9.6,24.9,15.3,38.3,114.9,70.9c68.9,23,157,42.1,197.2,42.1c59.4,1.9,65.1,3.8,34.5,21.1c-19.2,11.5-63.2,17.2-99.6,11.5c-74.7-11.5-78.5,0-34.5,88.1l32.6,61.3l-40.2-36.4c-23-19.2-46-59.4-51.7-90c-15.3-63.2-59.4-93.8-137.9-91.9c-42.1,0-65.1,19.1-116.8,97.7c-51.7,80.4-57.5,101.5-38.3,128.3c19.1,24.9,19.1,26.8-1.9,7.7c-21.1-19.1-49.8-1.9-141.7,82.4c-63.2,55.5-124.5,103.4-136,105.3c-11.5,0,72.8,17.2,187.7,36.4l208.7,36.4l90-46c76.6-38.3,107.2-44,203-34.5c109.2,13.4,111.1,13.4,46,28.7c-36.4,7.7-86.2,9.6-111.1,3.8c-24.9-5.7-80.4,9.6-128.3,32.6c-63.2,30.6-105.3,40.2-170.5,32.5c-47.9-5.7-88.1-7.7-88.1-3.8c0,3.8,47.9,42.1,107.2,88.1l109.2,80.4l193.4,3.8c105.3,1.9,214.5-3.8,241.3-13.4c42.1-15.3,44-15.3,15.3,7.7c-21.1,17.2-107.2,30.6-218.3,38.3c-101.5,5.8-187.7,13.4-191.5,19.2c-11.5,9.6,42.1,126.4,84.3,183.9l32.6,47.9l-51.7-34.5c-28.7-19.2-61.3-63.2-72.8-97.7c-28.7-88.1-78.5-147.5-206.8-245.1c-72.8-55.5-139.8-88.1-193.4-97.7c-91.9-13.4-91.9-19.2,11.5,124.5c63.2,88.1,76.6,159,44.1,237.5c-9.6,26.8-1.9,55.5,30.6,99.6c28.7,38.3,44.1,84.3,44.1,124.5c-3.8,51.7-5.8,53.6-11.5,15.3c-3.8-26.8-28.7-74.7-53.6-105.3c-40.2-51.7-47.9-53.6-74.7-28.7c-15.3,15.3-42.1,63.2-57.4,105.3c-24.9,70.9-28.7,72.8-28.7,23c-1.9-28.7,21.1-97.7,49.8-153.2c26.8-55.5,57.4-130.2,65.1-166.6c13.4-57.5,7.7-74.7-36.4-120.6l-49.8-53.6l-34.5,44l-34.5,44l19.2-55.5c15.3-42.1,13.4-65.1-9.6-99.6c-34.5-55.5-28.7-53.6-114.9-13.4c-44,21.1-65.1,42.1-57.5,59.4c24.9,68.9,28.7,114.9,11.5,185.8l-17.2,76.6l-1.9-99.6c-1.9-111.1-9.6-118.7-65.1-67c-38.3,32.6-38.3,32.6-3.8-28.7c21.1-34.5,32.6-67,26.8-72.8c-5.8-3.8-47.9,1.9-95.7,15.3c-70.9,21.1-84.3,32.6-90,78.5c-3.8,30.6,5.7,86.2,21.1,124.5c17.2,38.3,34.5,97.7,40.2,134.1c7.6,36.4,32.5,91.9,57.5,126.4l45.9,59.4l-55.5,74.7c-47.9,65.1-55.5,91.9-59.4,218.3l-3.8,145.6l-5.7-128.3c-3.8-72.8-13.4-130.2-21.1-130.2c-9.6,0-46,32.6-86.2,72.8c-55.5,55.5-67,80.4-57.4,118.7c7.6,38.3,5.7,44-13.4,24.9c-40.2-38.3-5.7-103.4,124.5-245.1c68.9-72.8,124.5-137.9,124.5-143.6c0-7.7-19.2-30.6-44-53.6c-44-40.2-47.9-42.1-111.1-9.6c-36.4,17.2-93.8,63.2-128.3,99.6l-63.2,68.9l32.5-59.4c17.2-34.5,68.9-84.3,114.9-113c97.7-63.2,107.3-80.4,80.4-176.2c-24.9-97.7-49.8-120.6-80.4-76.6c-24.9,30.6-26.8,30.6-36.4-5.7c-15.3-57.5-84.3-47.9-147.5,19.2c-80.4,84.3-107.2,68.9-34.5-19.2c51.7-63.2,74.7-76.6,132.1-76.6c53.7,0,78.5-11.5,101.5-47.9l30.6-47.9h-118.8c-141.7-1.9-339-38.3-444.3-84.3l-74.7-32.6l11.5,53.6c23,113,95.7,279.6,149.4,340.9c38.3,42.1,47.9,67,32.5,70.9c-19.1,7.7-19.1,19.2,0,61.3c11.5,28.7,23,74.7,21.1,103.4c-1.9,47.9-1.9,47.9-17.2-9.6c-7.7-34.5-24.9-76.6-38.3-91.9c-13.4-15.3-19.2-44-15.3-63.2c5.7-19.2-9.6-59.4-32.6-90l-44-53.6l-30.7,59.4c-17.2,34.5-26.8,80.4-21.1,105.3c5.7,23,3.8,65.1-7.7,90c-17.2,44-19.2,40.2-19.2-32.6c-1.9-78.5-3.8-82.3-61.3-82.3c-32.6,0-53.6-7.7-46-19.2c5.7-9.6,30.6-19.2,53.6-19.2c30.7,0,51.7-21.1,74.7-78.5c32.6-74.7,30.6-80.4-9.6-166.6c-23-49.8-42.1-91.9-44-95.8c-1.9-3.8-28.7,7.7-57.5,26.8c-67,44-141.7,204.9-141.7,306.4c0,55.5,17.2,103.4,63.2,170.4c32.6,49.8,90,137.9,124.5,195.4l63.2,101.5l162.8-7.7c139.8-7.7,159-3.8,139.8,19.2c-13.4,15.3-34.5,24.9-49.8,19.2c-51.7-21.1-5.7,116.8,57.4,164.7c23,19.2,32.6,34.5,19.2,34.5c-32.6,0-80.4-53.6-111.1-126.4c-23-55.5-36.4-65.1-93.8-65.1c-124.5,0-134.1,13.4-78.5,107.3c26.8,46,55.5,128.3,61.3,181.9c7.7,63.2,23,101.5,44,113c19.2,9.6,40.2,32.6,46,51.7c9.6,24.9,1.9,21.1-34.5-11.5l-49.8-46l-1.9,55.5c-1.9,55.5-1.9,55.5-17.2,7.7c-7.7-26.8-15.3-82.4-17.2-126.4c-1.9-97.7-9.6-103.4-84.2-82.3c-78.5,23-93.8,3.8-17.2-23c74.7-24.9,76.6-53.6,11.5-132.1c-69-82.3-111.1-68.9-124.5,38.3l-11.5,86.2l-1.9-78.5c-3.8-57.5,7.7-88.1,34.5-113c49.8-44,47.9-63.2-11.5-170.4c-55.5-99.6-67-97.7-101.5,21.1c-21.1,76.6-9.6,300.7,28.7,542c5.7,46,3.8,57.5-7.7,38.3c-11.5-15.3-24.9-84.3-32.6-153.2c-15.3-157-23-185.8-57.5-199.2c-42.1-15.3-124.5,61.3-124.5,116.8c0,28.7-5.7,46-11.5,38.3c-7.7-5.7-40.2,7.7-72.8,32.6c-105.3,78.5-118.7,76.6-34.5-1.9c44-42.1,80.4-90,80.4-107.2c0-47.9,95.8-147.5,141.7-147.5c42.1,0,45.9-9.6,55.5-157c15.3-204.9-19.2-494.1-57.5-494.1c-36.4,0-101.5,34.5-153.2,82.3c-24.9,21.1-44,28.7-44,17.3c0-11.5,36.4-49.8,80.4-84.3c109.2-84.3,270-247,314.1-312.2c34.5-53.6,34.5-53.6-17.2-95.8c-36.4-26.8-70.9-38.3-107.3-32.6c-30.6,3.8-59.4,0-65.1-9.6s15.3-13.4,49.8-9.6l61.3,9.6l-95.8-99.6c-51.7-53.6-128.3-151.3-170.4-216.4l-72.8-120.6l9.6,107.2c5.7,59.4,28.7,151.3,51.7,203c36.4,86.2,46,95.8,91.9,88.1c51.7-5.7,51.7-5.7,5.7,13.4c-30.6,13.4-40.2,28.7-32.5,53.6c7.7,23,0,19.2-24.9-11.5c-38.3-44.1-38.3-44.1-59.4-5.7c-15.3,30.6-13.4,57.5,9.6,109.2c15.3,38.3,28.7,91.9,26.8,120.6c-1.9,47.9-1.9,47.9-15.3-7.7c-7.7-30.6-24.9-76.6-36.4-99.6c-28.7-53.6-28.7-126.4-1.9-153.2c17.2-17.2,11.5-49.8-22.9-128.3c-24.9-59.4-49.8-107.2-55.5-107.2s-30.6,80.4-55.5,180c-42.1,164.7-44,187.7-21.1,304.5c21.1,99.6,21.1,147.5,3.8,227.9c-21.1,90-19.2,118.7,17.2,235.6c21.1,74.7,44.1,159,49.8,187.7c5.7,30.6,30.6,65.1,61.3,80.4c26.8,15.3,38.3,26.8,24.9,28.7c-13.4,0-42.1-9.6-63.2-19.2c-32.6-19.2-36.4-13.4-36.4,61.3c-1.9,107.2-70.9,317.9-170.4,503.7c-42.1,82.3-78.5,143.6-78.5,136c0-7.7-26.8,17.2-59.4,55.5c-90,101.5-329.4,252.8-473,298.8C5170.4,5029.3,4906.2,5036.9,4724.2,4987.2z M5339,4759.3c316-122.6,551.6-438.6,584.1-779.5c21.1-235.6-69-507.5-227.9-683.7l-82.3-90l-141.7,88.1c-76.6,47.9-147.4,80.4-155.1,70.9c-101.5-118.7-162.8-212.6-189.6-287.3c-28.7-80.4-40.2-91.9-91.9-97.7c-84.3-7.7-132.1,23-147.5,93.8c-9.6,47.9-174.3,304.5-197.3,304.5c-1.9,0-67-38.3-143.6-86.2l-139.8-86.2l-76.6,82.3c-444.3,480.7-239.4,1264,388.8,1482.3C4888.9,4830.1,5170.4,4824.4,5339,4759.3z M3893.1,4006.6c-5.8-13.4-9.6-3.8-9.6,23s3.8,36.4,9.6,24.9C3896.9,4041.1,3896.9,4018.1,3893.1,4006.6z M3977.3,3391.9c-15.3-15.3-21.1-5.7-21.1,36.4c1.9,47.9,3.8,51.7,21.1,21.1C3992.6,3422.5,3992.6,3407.2,3977.3,3391.9z M6038,3393.8c-5.8-15.3-11.5-9.6-11.5,11.5c-1.9,21.1,3.8,32.6,9.6,24.9C6041.8,3424.4,6043.7,3407.2,6038,3393.8z M2843.6,3342.1c124.5-38.3,287.3-139.8,379.2-235.6c233.6-243.2,314.1-626.2,195.3-944.1c-44-120.6-193.4-350.5-239.4-367.7c-15.3-5.7-91.9,28.7-170.4,76.6c-139.8,86.2-143.6,88.1-164.7,47.9c-11.5-21.1-49.8-76.6-86.2-124.5c-34.5-46-72.8-118.7-84.3-159c-21.1-76.6-21.1-76.6-114.9-76.6c-93.8,0-93.8,0-114.9,74.7c-9.6,40.2-59.4,128.3-111.1,197.3l-90,122.6l-134.1-82.4c-74.7-44-143.6-82.3-157-82.3c-11.5,0-57.5,44-99.6,97.7c-293,369.6-281.5,858,30.6,1206.5C2121.6,3357.4,2487.3,3453.1,2843.6,3342.1z M4098,3250.1l72.8-101.5l-51.7-19.2c-86.2-32.6-139.8-42.1-149.4-24.9c-3.8,7.7-15.3,59.4-23,113c-9.6,78.5-5.7,103.4,21.1,130.2c17.2,19.2,38.3,26.8,46,17.2C4019.4,3357.4,4057.7,3303.8,4098,3250.1z M6039.9,3234.8c3.8-61.3-1.9-118.7-11.5-128.3c-15.3-15.3-176.2,17.3-176.2,34.5c0,26.8,147.5,216.4,162.8,212.6C6024.6,3349.7,6036.1,3296.1,6039.9,3234.8z M4256.9,3068.2c24.9-23,44-51.7,44-67c0-13.4,15.3-24.9,34.5-24.9c51.7,0,214.5-109.2,214.5-143.6c0-17.2-38.3-99.6-86.2-185.8l-84.3-157l-38.3,84.3c-21.1,47.9-40.2,103.4-40.2,124.5c0,19.2-26.8,65.1-61.3,99.6c-55.5,57.5-59.4,68.9-40.2,118.7c11.5,32.6,13.4,67,3.8,80.4c-11.5,19.2-17.2,15.3-17.2-15.3c0-23-7.7-47.9-19.2-53.6c-38.3-23-19.2-101.5,38.3-149.4c32.6-26.8,57.5-63.2,57.5-78.5c0-44.1-70.9-109.2-103.4-95.8c-15.3,5.7-32.6,1.9-40.2-9.6c-7.7-13.4,13.4-21.1,55.5-21.1c42.1,0,72.8,11.5,84.3,30.6c28.7,49.8,86.2-145.6,86.2-287.3c0-180-42.1-392.6-86.2-436.7c-47.9-47.9-86.2-36.4-250.9,74.7c-149.4,99.6-185.8,157-185.8,287.3c0,178.1,107.3,653,168.5,746.9c15.3,24.9,176.2,120.6,203,120.6C4205.2,3110.3,4232,3091.2,4256.9,3068.2z M5999.7,2991.6c30.6-38.3,95.7-252.8,130.2-432.8c40.2-206.8,24.9-452-34.5-517.1c-57.4-63.2-210.7-157-256.6-157c-103.4,0-168.5,218.3-153.2,515.2c5.7,109.2,15.3,203,21.1,208.8c5.7,3.8,21.1,0,34.5-9.6c32.6-26.8,174.3-42.1,149.4-17.2c-9.6,9.6-34.5,19.1-55.5,21.1c-46,3.8-116.8,63.2-116.8,97.7c0,13.4,24.9,42.1,55.5,65.1c65.1,44,91.9,109.2,61.3,139.8c-11.5,11.5-21.1,42.1-21.1,69c0,36.4-5.7,42.1-21.1,26.8c-17.2-17.2-17.2-38.3,1.9-82.3c23-57.5,21.1-63.2-46-132.1c-40.2-40.2-68.9-90-68.9-116.8c-1.9-26.8-17.2-76.6-36.4-111.1l-32.6-65.1l-30.6,46c-67,101.5-132.1,250.9-126.4,289.2c5.7,46,155.1,143.6,222.1,145.6c23,1.9,42.1,11.5,42.1,24.9c0,11.5,19.2,42.1,40.2,65.1l42.1,44l88.1-46C5938.4,3037.6,5988.2,3006.9,5999.7,2991.6z M7501.2,2945.6c316-93.8,538.1-314.1,633.9-626.2c32.6-107.3,38.3-164.7,30.6-310.3c-7.7-155.1-19.2-199.2-78.5-323.7c-36.4-78.5-103.4-181.9-147.5-229.8l-78.5-86.2l-143.6,88.1c-78.5,47.9-147.5,84.3-149.4,80.4c-95.8-103.4-203-283.4-203-339c0-42.1-34.5-61.3-111.1-61.3c-70.9,0-90,17.2-116.8,101.5c-13.4,38.3-57.4,116.8-99.6,170.4c-40.2,55.5-74.7,107.2-74.7,114.9c0,28.7-36.4,15.3-176.2-72.8l-139.8-86.2l-72.8,82.4c-105.3,118.7-197.2,316-224.1,476.9c-72.8,430.9,204.9,879,628.2,1015C7118.1,2983.9,7361.3,2987.8,7501.2,2945.6z M3747.5,2727.3c30.6-101.5,36.4-151.3,24.9-272c-7.7-82.3-19.2-149.4-26.8-149.4c-30.6,0-74.7,70.9-65.1,107.3c13.4,51.7-23,308.3-55.5,407.9c-24.9,69-24.9,76.6,3.8,84.3C3672.8,2915,3703.5,2870.9,3747.5,2727.3z M5448.1,2752.2c24.9-51.7,51.7-122.6,59.4-159s17.2-80.4,21.1-95.8c9.6-36.4-38.3-28.7-149.4,19.2c-57.4,24.9-91.9,57.5-118.7,111.1c-47.9,91.9-95.8,113-168.5,70.9l-53.6-30.6l70.9,11.5c59.4,9.6,74.7,3.8,111.1-42.1c49.8-65.1,44-124.5-19.2-143.6c-34.5-9.6-23-11.5,36.4-7.7c76.6,7.7,114.9-1.9,262.3-69c61.3-28.7,82.4-90,103.4-298.8c44-417.5,61.3-505.6,176.2-865.6l116.8-373.4v-249c0-486.5-134.1-992.1-352.4-1313.8c-99.6-149.4-363.9-415.6-463.5-467.3c-70.9-38.3-72.8-38.3-143.6,0c-51.7,26.8-86.2,69-124.5,147.5l-55.5,109.2l32.6,139.8c49.8,216.4,84.3,277.7,310.3,513.3C5329.4-1.8,5337.1,2.1,5404.1-130.1c23-44,40.2-53.6,99.6-53.6c57.4,0,78.5-11.5,105.3-51.7l34.5-53.6l-13.4,67c-13.4,72.8-34.5,95.8-91.9,95.8c-36.4,0-36.4,0,0,40.2c26.8,30.6,49.8,36.4,95.7,28.7c40.2-7.7,67.1-3.8,82.4,15.3c36.4,44-164.7,51.7-216.4,7.6c-38.3-30.6-42.1-28.7-80.4,5.8l-42.1,38.3l65.1,109.2C5519,243.4,5584.1,410,5584.1,477c0,42.1,7.7,47.9,72.8,47.9c38.3,1.9,91.9,15.3,118.8,30.6c46,26.8,42.1,28.7-63.2,17.2c-109.2-9.6-111.1-9.6-97.7,32.6c5.8,24.9,24.9,70.9,42.1,101.5l28.7,57.5l-51.7-46c-26.8-24.9-68.9-95.8-91.9-159c-24.9-61.3-49.8-111.1-59.4-111.1c-7.7,0-40.2,19.1-70.9,42.1c-65.1,47.9-72.8,97.7-28.7,201.1c34.5,82.3,24.9,116.8-38.3,164.7c-57.5,40.2-61.3,23-11.5-42.1c34.5-46,34.5-49.8,0-132.1c-51.7-120.7-46-147.5,47.9-239.4l84.3-80.4l-36.4-74.7c-38.3-80.4-103.4-157.1-153.2-183.9c-26.8-15.3-34.5,9.6-61.3,174.3c-34.5,212.6-78.5,327.5-164.7,436.6c-93.8,118.7-109.2,166.6-68.9,212.6c21.1,23,59.4,38.3,95.8,38.3c47.9,0,70.9,15.3,116.8,76.6c63.2,86.2,84.3,91.9,168.5,40.2c32.5-19.2,111.1-40.2,176.2-46c63.2-7.7,132.1-17.2,153.2-24.9c30.6-9.6,28.7-3.8-9.6,28.7c-26.8,24.9-70.9,40.2-114.9,40.2c-42.1,0-95.8,19.2-139.8,47.9c-38.3,26.8-84.3,47.9-99.6,47.9c-17.2,0-30.6,11.5-30.6,24.9c0,38.3,40.2,70.9,86.2,70.9c47.9,0,86.2,40.2,122.6,124.5l23,57.5l-55.5-65.1c-34.5-42.1-90-78.5-147.5-95.8c-82.3-28.7-93.8-38.3-126.4-124.5c-19.2-51.7-44.1-103.4-53.7-113c-26.8-26.8-256.6-49.8-283.4-28.7c-11.5,9.6-36.4,57.5-51.7,105.3c-36.4,109.2-28.7,126.4,160.9,312.2c70.9,68.9,141.7,147.5,160.9,178.1c28.7,46,42.1,51.7,134.1,51.7c124.5,0,147.4,23,168.5,170.4c30.6,204.9,36.4,262.4,17.2,222.2c-30.6-72.8-59.4-176.2-59.4-218.3c0-70.9-34.5-114.9-111.1-136c-109.2-30.6-124.5-26.8-99.6,24.9c19.1,38.3,17.2,38.3-21.1-5.7c-23-26.8-61.3-72.8-84.3-103.4l-44-55.5l-21.1,74.7c-32.6,116.8-26.8,137.9,51.7,178.1c40.2,21.1,84.3,61.3,95.8,88.1c32.6,68.9,15.3,82.3-24.9,21.1c-17.2-26.8-68.9-68.9-113-95.8l-82.4-47.9l23-122.6l23-124.5L4864,1436.5l-120.6-109.2l-13.4,49.8c-9.6,36.4-1.9,67,24.9,101.5c59.4,80.4,82.3,172.4,80.4,308.3c-1.9,68.9-7.7,101.5-9.6,68.9c-21.1-174.3-53.6-272-114.9-339c-57.5-65.1-61.3-78.5-44-124.5c11.5-30.6,26.8-101.5,36.4-160.9c7.7-57.5,40.2-170.4,72.8-249c30.6-78.5,53.6-147.5,47.9-155.1c-13.4-24.9-99.6-17.2-159,13.4c-78.5,40.2-132.1,155.1-155.1,340.9c-13.4,86.2-34.5,174.3-49.8,195.3c-23,34.5-24.9,24.9-15.3-76.6c7.7-63.2,15.3-134.1,21.1-157c7.7-38.3,0-44-53.6-46l-63.2-1.9l63.2-17.2c34.5-11.5,67-34.5,72.8-51.7c55.5-172.4,105.3-229.8,245.1-281.5c216.4-78.5,298.8-231.7,298.8-549.6V30.8l-91.9-84.3c-113-101.5-181.9-139.8-224.1-122.6c-55.5,21.1-143.6,245.1-157.1,392.6l-11.5,136l74.7,30.6c40.2,17.2,114.9,40.2,164.7,51.7c49.8,13.4,91.9,28.7,91.9,36.4c0,28.7-40.2,34.5-80.4,13.4c-68.9-36.4-187.7-53.6-187.7-28.7c0,13.4,9.6,32.6,21.1,44c11.5,11.5,17.2,32.6,13.4,47.9c-13.4,34.5-130.2-201.1-130.2-262.4s-26.8-61.3-103.4,1.9c-113,95.8-141.7,210.7-65.1,271.9c90,72.8,111.1,101.5,111.1,155.1c0,30.6-11.5,63.2-24.9,74.7c-19.2,17.2-23,7.7-17.2-42.1c5.8-51.7-1.9-70.9-44-105.3c-28.7-21.1-59.4-40.2-67-40.2c-17.2,0-44,65.1-84.3,201.1l-28.7,95.8v-88.1c-1.9-49.8,11.5-120.6,26.8-159c15.3-38.3,32.6-109.2,38.3-159c13.4-134.1,21.1-145.5,141.7-250.9c80.4-70.9,114.9-116.8,124.5-160.9c9.6-51.7,57.5-174.3,118.7-314.1c5.7-11.5-19.2-55.5-53.6-97.7c-34.5-44-78.5-105.3-95.8-137.9c-17.2-32.6-46-59.4-61.3-59.4c-15.3,0-59.4,38.3-93.8,86.2c-128.3,166.6-254.7,764.2-239.4,1129.9c9.6,241.3,91.9,528.6,231.7,813.9l99.6,201.1H4527c97.7-1.9,99.6-1.9,47.9,24.9l-51.7,28.7l57.5,38.3c30.6,21.1,99.6,84.3,151.3,139.8c130.2,136,170.4,157,321.7,172.4l132.1,13.4l-65.1,28.7c-51.7,23-82.3,23-176.2,3.8c-149.4-28.7-174.3,0-78.5,91.9c47.9,46,67,80.4,67,122.6v59.4l-55.5-78.5c-32.6-42.1-76.6-82.4-97.7-90c-38.3-11.5-40.2-23-30.6-113c11.5-88.1,7.7-105.3-30.6-143.6c-55.5-53.6-258.5-174.3-296.8-174.3c-32.6,0-32.6-3.8,21.1,254.7c17.2,82.4,30.6,180,30.6,218.3c0,82.3,28.7,139.8,72.8,139.8c19.2,0,51.7,13.4,74.7,28.7c28.7,21.1,68.9,26.8,124.5,19.2c57.5-5.7,67-3.8,34.5,5.7c-55.5,19.2-57.5,76.6-7.7,153.2c24.9,38.3,40.2,44.1,99.6,34.5c67-11.5,68.9-9.6,34.5,17.2c-21.1,15.3-49.8,28.7-65.1,28.7c-46,0-99.6-38.3-99.6-72.8c0-19.2-17.2-53.6-38.3-76.6c-40.2-42.1-170.4-107.3-185.8-91.9c-19.2,17.2,17.2,82.4,99.6,183.9c47.9,57.5,86.2,111.1,86.2,116.8c0,7.7,105.3,9.6,235.6,3.8c170.5-5.7,260.5,0,329.4,21.1C5404.1,2849.9,5400.3,2851.8,5448.1,2752.2z M3872,1961.3c86.2-90,168.5-191.5,187.7-224.1c67-134.1,13.4-469.2-95.8-582.2c-84.3-88.1-126.4-74.7-298.8,93.8c-222.1,212.6-264.3,339-143.6,429c88.1,68.9,132.1,72.8,229.8,26.8c51.7-24.9,82.4-32.6,76.6-19.2c-3.8,13.4-21.1,28.7-38.3,34.5c-24.9,9.6-24.9,17.2-3.8,42.1c17.2,21.1,44,26.8,91.9,19.2l69-9.6l-65.1,21.1c-42.1,15.3-72.8,15.3-95.8,1.9c-36.4-23-250.9-30.6-250.9-7.7c0,7.7,30.6,46,67,84.3c46,47.9,67,86.2,65.1,122.6c-1.9,51.7-1.9,51.7-15.3,7.7c-7.7-26.8-21.1-49.8-34.5-53.6c-40.2-13.4-40.2,47.9,0,157c40.2,111.1,40.2,111.1,68.9,65.1C3703.5,2145.1,3785.8,2051.3,3872,1961.3z M3550.2,1880.8c-17.2-34.5-42.1-86.2-55.5-114.9c-24.9-57.5-55.5-70.8-55.5-26.8c0,34.5,116.8,226,130.2,212.6C3575.1,1945.9,3565.6,1913.4,3550.2,1880.8z M6147.2,1880.8c11.5-67,9.6-72.8-49.8-91.9l-63.2-19.1l72.8,11.5c65.1,7.7,70.9,5.7,70.9-36.4c0-23-11.5-55.5-23-70.9c-21.1-23-19.1-23,5.8-3.8s36.4,7.7,76.6-76.6c24.9-53.6,74.7-137.9,107.3-185.8l63.2-86.2L6287,1210.5c-143.6-132.1-199.2-141.7-268.1-47.9c-59.4,78.5-107.3,216.4-122.6,356.2c-13.4,137.9,30.6,243.2,147.5,362c46,44.1,84.3,78.5,86.2,76.6C6131.8,1953.6,6139.5,1919.1,6147.2,1880.8z M3349.2,1499.7c-7.7-7.7-46-1.9-82.3,15.3c-44,19.2-57.5,32.6-40.2,40.2c15.3,5.8,49.8,36.4,76.6,67l49.8,59.4l5.7-82.3C3362.6,1553.3,3358.7,1509.3,3349.2,1499.7z M3163.4,1453.7c32.5-24.9,28.7-26.8-68.9-26.8c-101.5,0-103.4,0-57.5,26.8C3098.3,1488.2,3117.4,1488.2,3163.4,1453.7z M2634.8,1354.2l162.8,11.5l-95.8-51.7c-172.4-91.9-461.5-57.5-484.5,57.5c-3.8,24.9,9.6,24.9,124.5,0C2426.1,1354.2,2529.5,1348.4,2634.8,1354.2z M6578.1,1137.7c57.5,0,289.2-134.1,289.2-168.5c0-17.2-26.8-78.5-59.4-136l-59.4-101.5l-40.2,63.2c-34.5,53.6-55.5,65.1-109.2,67c-36.4,0-84.3,7.7-105.3,15.3c-38.3,13.4-38.3,13.4,0-9.6c19.2-13.4,63.2-28.7,95.8-34.5c72.8-15.3,132.1-128.3,162.8-314.1c26.8-149.4,24.9-151.3-132.1-323.7C6459.3,19.3,6287-40.1,6223.8,57.6c-65.1,97.7,5.7,630.1,109.1,836.9c57.5,113,195.4,293,204.9,266.2C6541.7,1147.3,6558.9,1137.7,6578.1,1137.7z M7169.8,946.2h63.2l-32.5-61.3c-17.2-32.6-76.6-103.4-132.1-157c-53.6-53.6-134.1-141.7-178.1-197.3c-86.2-111.1-91.9-109.2-111.1,61.3c-11.5,90-5.7,114.9,47.9,212.6c32.5,61.3,59.4,128.3,59.4,151.3c0,42.1,1.9,42.1,111.1,17.2C7056.9,957.7,7135.4,946.2,7169.8,946.2z M8006.7,457.9l191.5-116.8l-1.9-90c0-47.9-5.8-93.9-9.6-99.6c-5.8-5.7-57.5-17.2-113-28.7c-57.4-11.5-113-28.7-122.6-38.3c-26.8-26.8-120.6-24.9-197.2,3.8c-51.7,19.2-67,17.3-86.2-1.9c-21.1-21.1-19.1-24.9,0-13.4c26.8,15.3,157.1-26.8,157.1-49.8c0-7.7-40.2-26.8-88.1-38.3c-49.8-13.4-93.8-38.3-99.6-53.6c-28.7-78.5-109.2-74.7-222.2,9.6c-95.8,74.7-114.9,136-55.5,183.9c17.2,15.3,93.8,122.6,170.4,239.4c76.6,118.7,149.4,218.3,164.7,224.1C7742.5,605.3,7815.2,576.6,8006.7,457.9z M2395.4,457.9c40.2-63.2,116.8-174.3,168.5-249l93.8-134.1l-120.7,118.8c-141.7,136-271.9,222.1-406,266.2l-95.8,32.5l74.7,46c49.8,28.7,97.7,42.1,141.7,40.2C2309.2,572.8,2328.4,557.5,2395.4,457.9z M1887.9,312.3c352.4-55.5,666.5-346.7,745-689.4c51.7-224.1,5.7-505.6-114.9-697.1c-63.2-103.4-149.4-201.1-174.3-201.1c-7.7,0-76.6,38.3-151.3,84.3l-137.9,84.2l-63.2-90c-88.1-122.6-141.7-222.2-141.7-270c0-34.5-11.5-38.3-103.4-38.3c-101.5,0-103.4,0-114.9,65.1c-7.7,34.5-55.5,124.5-109.2,199.2l-97.7,134.1l-141.7-88.1l-143.6-86.2l-76.6,74.7C959.1-1106.8,861.4-898,834.6-723.8c-72.8,465.4,249,927,714.3,1028.4C1698.3,337.2,1734.7,337.2,1887.9,312.3z M8190.6,34.6c5.8-30.7,24.9-84.3,44.1-116.8c17.2-34.5,26.8-63.2,23-63.2c-17.2,0-227.9,57.5-233.6,63.2c-19.1,19.1,36.4,145.5,74.7,162.8C8158,109.3,8177.2,99.7,8190.6,34.6z M8008.7,15.5c-5.7-17.2-11.5-46-11.5-65.1c0-30.6-19.2-36.4-172.4-42.1c-95.8-3.8-172.4,0-172.4,7.7s36.4,24.9,82.3,36.4c44,13.4,93.8,34.5,109.2,46c38.3,30.6,76.6,44,132.1,46C8008.7,46.1,8018.2,38.5,8008.7,15.5z M2956.6-116.7c545.8-137.9,854.1-302.6,1059.1-561.1c130.2-162.8,172.4-241.3,275.8-509.4l72.8-189.6l-36.4-68.9c-28.7-53.6-47.9-67-84.3-63.2c-187.7,23-264.3,38.3-304.5,59.4c-26.8,15.3-124.5,45.9-220.2,68.9c-258.5,65.1-356.2,111.1-356.2,172.4c0,36.4,15.3,53.6,63.2,72.8c32.6,15.3,72.8,40.2,88.1,57.5c23,30.7,30.6,30.7,90-7.6c40.2-24.9,86.2-36.4,126.4-32.6l63.2,7.7l-57.5,15.3c-157,40.2-176.2,68.9-95.8,149.4c44,44,55.5,47.9,137.9,32.6c47.9-9.6,93.8-13.4,97.7-7.7c15.3,15.3-166.6,90-203,82.3c-17.2-3.8-55.5-42.1-86.2-88.1c-61.3-90-224.1-191.5-224.1-139.8c0,9.6-30.6,61.3-67,116.8c-36.4,55.5-67,111.1-67,126.4c0,59.4,80.4,180,147.5,227.9c78.5,51.7,57.5,65.1-30.6,21.1c-61.3-32.6-105.3-91.9-124.5-172.4l-13.4-55.5l-53.6,51.7c-44.1,42.1-55.5,74.7-65.1,164.7c-13.4,155.1-47.9,208.8-36.4,57.5c7.7-116.8,7.7-116.8-36.4-97.7c-24.9,9.6-68.9,23-95.8,28.7c-46,9.6-51.7,21-63.2,130.2c-7.7,67-30.6,168.5-51.7,226c-57.5,159-61.3,172.4-46,172.4C2765-68.8,2855.1-89.9,2956.6-116.7z M7321.1-116.7c44-26.8,82.3-51.7,82.3-55.5c0-3.8-49.8-36.4-109.2-69c-61.3-34.5-166.6-120.7-235.5-189.6c-68.9-69-109.2-99.6-88.1-69c19.2,32.6,57.5,78.5,86.2,101.5l49.8,46l-67-36.4c-36.4-19.2-82.4-65.1-99.6-99.6c-38.3-74.7-65.1-97.7-124.5-97.7c-38.3,0-42.1,7.7-34.5,101.5c7.7,86.2,5.7,90-7.7,26.8c-26.8-122.6-141.7-339-180-339c-59.4,0-109.2,38.3-109.2,84.3c0,24.9-13.4,70.9-28.7,99.6c-15.3,30.6-28.7,44-28.7,30.6s7.7-42.1,19.2-61.3c21.1-40.2,5.7-101.5-23-84.3c-32.6,21.1-109.2-11.5-132.1-55.5c-23-40.2-21.1-40.2,15.3-7.7c46,40.2,116.8,42.1,158.9,3.8c17.2-17.2,70.9-40.2,116.8-53.6c67-19.2,92-40.2,126.4-101.5c36.4-63.2,40.2-88.1,24.9-143.6c-26.8-93.8-63.2-137.9-116.8-136c-88.1,0-409.8,63.2-530.5,101.5c-67,23-147.5,36.4-178.1,32.5c-113-17.2-91.9,40.2,101.5,300.7c331.3,446.2,536.2,589.9,972.9,681.8C7200.5-59.2,7223.5-61.1,7321.1-116.7z M8014.4-298.6c352.4-57.5,668.4-350.5,746.9-691.4c32.5-137.9,24.9-346.7-17.2-478.8c-53.6-174.3-216.4-421.3-275.8-419.4c-11.5,0-80.4,38.3-153.2,86.2l-134.1,84.3l-28.7-46c-17.2-23-59.4-84.3-93.8-132.1c-34.5-49.8-69-118.7-74.7-155.1c-11.5-67-11.5-67-111.1-67h-101.5l-17.2,74.7c-11.5,42.1-61.3,130.2-111.1,199.2l-91.9,122.6l-141.7-86.2l-141.7-86.2l-76.6,74.7c-101.5,99.6-203,308.3-229.8,478.8c-74.7,465.4,249,930.7,718.2,1032.2C7826.7-275.6,7863.1-275.6,8014.4-298.6z M6857.7-727.6c-76.6-160.9-76.6-160.9-109.2-120.7c-42.1,53.6-44,134.1-3.8,168.5c17.2,15.3,67,45.9,111.1,67c42.1,23,78.5,42.1,78.5,44C6934.3-568.6,6899.8-639.5,6857.7-727.6z M3086.8-792.7c84.3-93.8,86.2-111.1,19.2-137.9c-34.5-13.4-28.7-17.2,30.6-17.2c93.8-1.9,149.4-70.9,149.4-185.8c0-46-3.8-84.3-7.7-84.3c-3.8,0-44.1,13.4-88.1,28.7c-46,15.3-153.2,34.5-239.4,40.2c-149.4,11.5-160.9,15.3-168.5,59.4c-3.8,24.9,7.7,95.8,24.9,157.1c19.2,59.4,40.2,149.4,47.9,197.3l13.4,88.1l68.9-28.7C2977.6-691.2,3044.6-744.8,3086.8-792.7z M3021.7-1233.2c7.7-7.7-7.7-47.9-34.5-88.1c-46-67-55.5-72.8-137.9-69c-168.5,7.7-185.8-3.8-42.1-30.6l141.7-24.9l88.1,95.8l86.2,97.7l124.5-47.9c176.2-65.1,348.6-155.1,390.7-203c34.5-38.3,34.5-42.1,5.8-74.7c-17.2-19.2-99.6-55.5-180-78.5c-82.3-24.9-220.2-69-306.4-99.6l-157-53.6l-118.7,40.2c-99.6,34.5-124.5,51.7-166.6,122.6c-42.1,70.8-65.1,86.2-143.6,107.2c-51.7,13.4-97.7,34.5-103.4,47.9c-5.7,13.4,38.3,78.5,99.6,143.6c82.3,93.8,124.5,122.6,178.1,134.1C2830.2-1198.7,2998.7-1210.2,3021.7-1233.2z M6392.3-1313.6c65.1-21.1,174.3-38.3,237.5-38.3c126.4,0,141.7-11.5,141.7-105.3c0-32.6-17.2-51.7-74.7-72.8c-68.9-28.7-80.4-26.8-181.9,9.6c-113,42.1-279.6,172.4-279.6,218.3C6235.3-1267.7,6246.7-1267.7,6392.3-1313.6z"/><path d="M4913.8,4399.2c-107.2-40.2-210.7-180-210.7-283.4c0-26.8,21.1-99.6,47.9-162.8c26.8-63.2,47.9-134.1,47.9-157c0-24.9,26.8-86.2,57.5-139.8c34.5-59.4,57.5-122.6,57.5-166.6c0-61.3,7.7-74.7,47.9-84.3c26.8-5.7,69-5.7,95.8,0c40.2,9.6,47.9,23,47.9,88.1c0,49.8,17.2,103.4,47.9,149.4c24.9,38.3,51.7,101.5,59.4,137.9c5.7,36.4,32.6,120.7,59.4,185.8c55.5,136,51.7,203-21.1,314.1C5180,4385.8,5024.9,4441.3,4913.8,4399.2z"/><path d="M2412.7,2939.9c-141.7-86.2-193.4-245.1-124.5-381.1c23-44.1,49.8-124.5,59.4-176.2c9.6-53.6,40.2-128.3,67-168.5c30.6-44,47.9-97.7,47.9-143.6c0-88.1,63.2-130.2,143.6-93.8c38.3,17.2,47.9,36.4,47.9,93.8c0,46,17.2,99.6,47.9,143.6c26.8,40.2,57.5,113,67,162.8c9.6,51.7,34.5,134.1,57.5,185.8c28.7,63.2,38.3,114.9,32.6,159c-13.4,82.3-91.9,187.7-166.6,226C2615.7,2987.8,2483.5,2983.9,2412.7,2939.9z"/><path d="M7118.1,2533.9c-86.2-51.7-130.2-107.2-158.9-195.3c-19.2-63.2-15.3-86.2,28.7-195.3c28.7-68.9,51.7-143.6,51.7-168.5c0-23,23-80.4,51.7-128.3c26.8-47.9,55.5-124.5,61.3-172.4c9.6-70.9,21.1-88.1,63.2-103.4c34.5-13.4,67-11.5,101.5,3.8c40.2,19.2,47.9,34.5,47.9,101.5c0,46,17.2,109.2,46,157c24.9,44.1,51.7,114.9,59.4,157c7.7,40.2,30.6,109.2,51.7,151.3C7650.5,2392.2,7355.6,2679.4,7118.1,2533.9z"/><path d="M6635.5,950.1c9.6-65.1,11.5-67,17.2-15.3c3.8,30.6,0,61.3-9.6,70.9C6633.6,1015.2,6629.8,992.2,6635.5,950.1z"/><path d="M1581.5-130.1c-38.3-24.9-88.1-84.2-113-137.9l-47.9-93.8l44-116.8c23-65.1,51.7-155.1,61.3-203c9.6-46,38.3-116.8,65.1-157.1c30.6-46,47.9-99.6,47.9-149.4c0-97.7,59.4-134.1,153.2-95.8c49.8,21.1,57.5,32.6,57.5,103.4c1.9,49.8,19.2,107.2,47.9,155.1c26.8,42.1,47.9,95.8,47.9,120.6c0,23,21.1,93.8,47.9,157c74.7,180,59.4,272-65.1,390.7c-47.9,46-80.4,57.5-168.5,65.1C1667.7-86,1637-91.8,1581.5-130.1z"/><path d="M7709.9-742.9c-36.4-24.9-86.2-82.3-111.1-130.2c-47.9-95.8-46-168.5,13.4-287.3c19.2-36.4,40.2-101.5,46-141.7c5.7-40.2,34.5-107.3,61.3-147.5c30.6-47.9,47.9-99.6,47.9-151.3c0-97.7,59.4-134.1,153.2-95.8c49.8,21.1,57.4,32.6,57.4,103.4c1.9,49.8,19.2,107.2,47.9,155.1c26.8,42.1,47.9,95.8,47.9,120.7c0,23,21.1,93.8,47.9,157c74.7,180,59.4,272-65.1,390.7c-47.9,45.9-80.4,57.5-168.5,65.1C7796.1-698.9,7765.4-704.6,7709.9-742.9z"/><path d="M3056.1,4435.6c11.5-24.9,26.8-40.2,34.5-34.5c5.8,7.7-3.8,26.8-23,46C3033.2,4477.7,3033.2,4477.7,3056.1,4435.6z"/><path d="M3646,4357.1c-3.8-32.6-1.9-69,3.8-80.4c7.7-11.5,19.2,7.7,24.9,42.1c5.8,36.4,1.9,72.8-5.7,80.4C3661.3,4408.8,3649.8,4389.6,3646,4357.1z"/><path d="M6323.3,4397.3c-5.7-9.6-1.9-42.1,7.7-72.8c15.3-55.5,15.3-55.5,17.2,17.2C6350.2,4410.7,6342.5,4427.9,6323.3,4397.3z"/><path d="M7711.8,3646.6c-1.9-26.8-19.1-86.2-40.2-132.1c-42.1-91.9-44-97.7-23-97.7c28.7,1.9,82.3,153.2,74.7,214.5C7717.6,3679.1,7715.6,3682.9,7711.8,3646.6z"/></g></g>
</svg>